<?xml version="1.0" encoding="utf-8"?>
<!-- Generator: Adobe Illustrator 16.0.0, SVG Export Plug-In . SVG Version: 6.00 Build 0)  -->
<!DOCTYPE svg PUBLIC "-//W3C//DTD SVG 1.1//EN" "http://www.w3.org/Graphics/SVG/1.1/DTD/svg11.dtd">
<svg version="1.1" id="Capa_1" xmlns="http://www.w3.org/2000/svg" xmlns:xlink="http://www.w3.org/1999/xlink" x="0px" y="0px"
	 width="9.604px" height="9.614px" viewBox="0 0 9.604 9.614" enable-background="new 0 0 9.604 9.614" xml:space="preserve">
<g>
	<g>
		<path fill="#797979" d="M4.802,0.125C2.214,0.131,0.12,2.233,0.125,4.821C0.127,5.99,0.568,7.116,1.359,7.979L1.4,8.026
			c1.78,1.879,4.746,1.959,6.625,0.179c0.061-0.058,0.121-0.118,0.179-0.179l0.042-0.047c1.749-1.906,1.622-4.871-0.285-6.621
			C7.099,0.568,5.972,0.127,4.802,0.125 M1.808,7.056c-1.006-1.327-1.006-3.162,0-4.489C3.047,3.502,3.294,5.265,2.36,6.504
			C2.202,6.713,2.017,6.898,1.808,7.056 M4.802,8.56c-0.854,0.002-1.68-0.291-2.343-0.829c1.612-1.299,1.866-3.658,0.568-5.272
			C2.859,2.25,2.668,2.061,2.459,1.892c1.366-1.106,3.319-1.106,4.687,0C5.532,3.191,5.278,5.551,6.577,7.163
			c0.168,0.209,0.36,0.399,0.569,0.568C6.483,8.269,5.655,8.562,4.802,8.56 M7.796,7.056C6.557,6.121,6.31,4.358,7.245,3.118
			c0.158-0.209,0.343-0.394,0.551-0.551C8.802,3.894,8.802,5.729,7.796,7.056"/>
		<path fill="none" stroke="#FFFFFF" stroke-width="0.25" stroke-miterlimit="10" d="M4.802,0.125
			C2.214,0.131,0.12,2.233,0.125,4.821C0.127,5.99,0.568,7.116,1.359,7.979L1.4,8.026c1.78,1.879,4.746,1.959,6.625,0.179
			c0.061-0.058,0.121-0.118,0.179-0.179l0.042-0.047c1.749-1.906,1.622-4.871-0.285-6.621C7.099,0.568,5.972,0.127,4.802,0.125z
			 M1.808,7.056c-1.006-1.327-1.006-3.162,0-4.489C3.047,3.502,3.294,5.265,2.36,6.504C2.202,6.713,2.017,6.898,1.808,7.056z
			 M4.802,8.56c-0.854,0.002-1.68-0.291-2.343-0.829c1.612-1.299,1.866-3.658,0.568-5.272C2.859,2.25,2.668,2.061,2.459,1.892
			c1.366-1.106,3.319-1.106,4.687,0C5.532,3.191,5.278,5.551,6.577,7.163c0.168,0.209,0.36,0.399,0.569,0.568
			C6.483,8.269,5.655,8.562,4.802,8.56z M7.796,7.056C6.557,6.121,6.31,4.358,7.245,3.118c0.158-0.209,0.343-0.394,0.551-0.551
			C8.802,3.894,8.802,5.729,7.796,7.056z"/>
	</g>
</g>
</svg>
