<?xml version="1.0" encoding="utf-8"?>
<!-- Generator: Adobe Illustrator 16.0.0, SVG Export Plug-In . SVG Version: 6.00 Build 0)  -->
<!DOCTYPE svg PUBLIC "-//W3C//DTD SVG 1.1//EN" "http://www.w3.org/Graphics/SVG/1.1/DTD/svg11.dtd">
<svg version="1.1" id="Capa_1" xmlns="http://www.w3.org/2000/svg" xmlns:xlink="http://www.w3.org/1999/xlink" x="0px" y="0px"
	 width="15.737px" height="9.543px" viewBox="0 0 15.737 9.543" enable-background="new 0 0 15.737 9.543" xml:space="preserve">
<g>
	<g>
		<path fill="#797979" d="M1.448,8.094c-0.073-0.071-0.16-0.126-0.256-0.163c-0.188-0.077-0.399-0.077-0.588,0
			C0.509,7.968,0.423,8.023,0.348,8.094C0.278,8.168,0.223,8.255,0.187,8.35c-0.12,0.288-0.057,0.62,0.162,0.842
			c0.075,0.07,0.163,0.124,0.256,0.163c0.188,0.084,0.402,0.084,0.588,0c0.094-0.039,0.181-0.093,0.256-0.163
			C1.668,8.97,1.732,8.638,1.61,8.35C1.574,8.255,1.52,8.168,1.448,8.094 M3.997,1.675h10.841c0.428,0,0.775-0.348,0.775-0.776
			c0-0.427-0.347-0.774-0.775-0.774H3.997c-0.429,0-0.774,0.347-0.774,0.774C3.222,1.327,3.567,1.675,3.997,1.675 M1.448,4.222
			c-0.222-0.22-0.555-0.284-0.844-0.163C0.511,4.098,0.423,4.153,0.348,4.222c-0.07,0.074-0.125,0.16-0.162,0.254
			c-0.082,0.188-0.082,0.403,0,0.589C0.225,5.159,0.28,5.246,0.348,5.321C0.423,5.39,0.511,5.444,0.604,5.483
			c0.188,0.084,0.402,0.084,0.588,0C1.286,5.444,1.374,5.39,1.448,5.321C1.518,5.246,1.571,5.159,1.61,5.065
			c0.084-0.186,0.084-0.4,0-0.589C1.574,4.382,1.52,4.296,1.448,4.222 M14.837,3.997H3.997c-0.429,0-0.774,0.347-0.774,0.774
			c0,0.428,0.345,0.775,0.774,0.775h10.841c0.428,0,0.775-0.347,0.775-0.775C15.612,4.344,15.265,3.997,14.837,3.997 M1.448,0.35
			c-0.073-0.071-0.16-0.127-0.256-0.164C0.904,0.066,0.571,0.13,0.348,0.35C0.28,0.425,0.225,0.511,0.187,0.605
			c-0.082,0.188-0.082,0.401,0,0.588C0.225,1.287,0.28,1.374,0.348,1.449c0.075,0.069,0.163,0.123,0.256,0.162
			c0.289,0.122,0.622,0.058,0.844-0.162C1.518,1.374,1.571,1.287,1.61,1.193c0.084-0.187,0.084-0.4,0-0.588
			C1.571,0.511,1.518,0.425,1.448,0.35 M14.837,7.869H3.997c-0.429,0-0.774,0.347-0.774,0.773c0,0.429,0.345,0.776,0.774,0.776
			h10.841c0.428,0,0.775-0.347,0.775-0.776C15.612,8.216,15.265,7.869,14.837,7.869"/>
		<path fill="none" stroke="#FFFFFF" stroke-width="0.25" stroke-miterlimit="10" d="M1.448,8.094
			c-0.073-0.071-0.16-0.126-0.256-0.163c-0.188-0.077-0.399-0.077-0.588,0C0.509,7.968,0.423,8.023,0.348,8.094
			C0.278,8.168,0.223,8.255,0.187,8.35c-0.12,0.288-0.057,0.62,0.162,0.842c0.075,0.07,0.163,0.124,0.256,0.163
			c0.188,0.084,0.402,0.084,0.588,0c0.094-0.039,0.181-0.093,0.256-0.163C1.668,8.97,1.732,8.638,1.61,8.35
			C1.574,8.255,1.52,8.168,1.448,8.094z M3.997,1.675h10.841c0.428,0,0.775-0.348,0.775-0.776c0-0.427-0.347-0.774-0.775-0.774
			H3.997c-0.429,0-0.774,0.347-0.774,0.774C3.222,1.327,3.567,1.675,3.997,1.675z M1.448,4.222c-0.222-0.22-0.555-0.284-0.844-0.163
			C0.511,4.098,0.423,4.153,0.348,4.222c-0.07,0.074-0.125,0.16-0.162,0.254c-0.082,0.188-0.082,0.403,0,0.589
			C0.225,5.159,0.28,5.246,0.348,5.321C0.423,5.39,0.511,5.444,0.604,5.483c0.188,0.084,0.402,0.084,0.588,0
			C1.286,5.444,1.374,5.39,1.448,5.321C1.518,5.246,1.571,5.159,1.61,5.065c0.084-0.186,0.084-0.4,0-0.589
			C1.574,4.382,1.52,4.296,1.448,4.222z M14.837,3.997H3.997c-0.429,0-0.774,0.347-0.774,0.774c0,0.428,0.345,0.775,0.774,0.775
			h10.841c0.428,0,0.775-0.347,0.775-0.775C15.612,4.344,15.265,3.997,14.837,3.997z M1.448,0.35
			c-0.073-0.071-0.16-0.127-0.256-0.164C0.904,0.066,0.571,0.13,0.348,0.35C0.28,0.425,0.225,0.511,0.187,0.605
			c-0.082,0.188-0.082,0.401,0,0.588C0.225,1.287,0.28,1.374,0.348,1.449c0.075,0.069,0.163,0.123,0.256,0.162
			c0.289,0.122,0.622,0.058,0.844-0.162C1.518,1.374,1.571,1.287,1.61,1.193c0.084-0.187,0.084-0.4,0-0.588
			C1.571,0.511,1.518,0.425,1.448,0.35z M14.837,7.869H3.997c-0.429,0-0.774,0.347-0.774,0.773c0,0.429,0.345,0.776,0.774,0.776
			h10.841c0.428,0,0.775-0.347,0.775-0.776C15.612,8.216,15.265,7.869,14.837,7.869z"/>
	</g>
</g>
</svg>
