<?xml version="1.0" encoding="utf-8"?>
<!-- Generator: Adobe Illustrator 16.0.0, SVG Export Plug-In . SVG Version: 6.00 Build 0)  -->
<!DOCTYPE svg PUBLIC "-//W3C//DTD SVG 1.1//EN" "http://www.w3.org/Graphics/SVG/1.1/DTD/svg11.dtd">
<svg version="1.1" id="Capa_1" xmlns="http://www.w3.org/2000/svg" xmlns:xlink="http://www.w3.org/1999/xlink" x="0px" y="0px"
	 width="9.547px" height="9.557px" viewBox="0 0 9.547 9.557" enable-background="new 0 0 9.547 9.557" xml:space="preserve">
<g>
	<g>
		<path fill="#797979" d="M4.773,0.125C2.201,0.131,0.12,2.219,0.125,4.792c0.002,1.163,0.439,2.283,1.225,3.14
			c1.745,1.891,4.692,2.01,6.581,0.265c0.092-0.084,0.181-0.174,0.266-0.265C9.936,6.037,9.808,3.09,7.914,1.351
			C7.056,0.565,5.936,0.129,4.773,0.125 M4.773,8.509C3.809,8.508,2.882,8.132,2.188,7.462c0.586-1.428,2.22-2.11,3.648-1.523
			c0.691,0.283,1.238,0.832,1.523,1.523C6.665,8.132,5.738,8.508,4.773,8.509 M3.843,3.851c0-0.514,0.417-0.931,0.93-0.931
			c0.515,0,0.932,0.417,0.932,0.931c0,0.515-0.417,0.932-0.932,0.932C4.26,4.783,3.843,4.366,3.843,3.851 M7.992,6.646
			C7.576,5.934,6.935,5.381,6.171,5.072C6.851,4.3,6.777,3.123,6.006,2.443C5.234,1.762,4.057,1.837,3.377,2.607
			c-0.622,0.705-0.622,1.761,0,2.465C2.612,5.381,1.97,5.934,1.554,6.646C1.223,6.082,1.049,5.438,1.048,4.783
			c0-2.057,1.668-3.726,3.725-3.726c2.058,0,3.727,1.669,3.727,3.726C8.499,5.438,8.324,6.082,7.992,6.646"/>
		<path fill="none" stroke="#FFFFFF" stroke-width="0.25" stroke-miterlimit="10" d="M4.773,0.125
			C2.201,0.131,0.12,2.219,0.125,4.792c0.002,1.163,0.439,2.283,1.225,3.14c1.745,1.891,4.692,2.01,6.581,0.265
			c0.092-0.084,0.181-0.174,0.266-0.265C9.936,6.037,9.808,3.09,7.914,1.351C7.056,0.565,5.936,0.129,4.773,0.125z M4.773,8.509
			C3.809,8.508,2.882,8.132,2.188,7.462c0.586-1.428,2.22-2.11,3.648-1.523c0.691,0.283,1.238,0.832,1.523,1.523
			C6.665,8.132,5.738,8.508,4.773,8.509z M3.843,3.851c0-0.514,0.417-0.931,0.93-0.931c0.515,0,0.932,0.417,0.932,0.931
			c0,0.515-0.417,0.932-0.932,0.932C4.26,4.783,3.843,4.366,3.843,3.851z M7.992,6.646C7.576,5.934,6.935,5.381,6.171,5.072
			C6.851,4.3,6.777,3.123,6.006,2.443C5.234,1.762,4.057,1.837,3.377,2.607c-0.622,0.705-0.622,1.761,0,2.465
			C2.612,5.381,1.97,5.934,1.554,6.646C1.223,6.082,1.049,5.438,1.048,4.783c0-2.057,1.668-3.726,3.725-3.726
			c2.058,0,3.727,1.669,3.727,3.726C8.499,5.438,8.324,6.082,7.992,6.646z"/>
	</g>
</g>
</svg>
